{"glyphs":{":":{"x_min":0,"x_max":250,"ha":250,"o":"m 82 370 q 82 406 104 431 q 125 456 157 456 q 187 456 204 438 q 221 419 221 389 q 221 355 202 328 q 183 300 146 300 q 117 300 99 318 q 82 336 82 370 z m 25 52 q 25 89 46 114 q 68 138 100 138 q 128 138 146 121 q 164 103 164 71 q 164 38 145 10 q 125 -17 89 -17 q 59 -17 42 1 q 25 20 25 52 z"},"$":{"x_min":0,"x_max":500,"ha":500,"o":"m 157 -110 l 174 -15 q 133 -13 99 -1 q 65 11 24 33 l 23 39 q 30 57 38 108 q 46 159 46 176 l 51 180 l 76 180 l 81 176 q 81 158 76 103 q 108 50 184 41 l 227 284 q 136 299 103 340 q 69 380 69 441 q 69 529 132 595 q 194 661 295 672 l 304 735 l 309 740 l 340 740 l 344 735 l 334 672 q 375 672 405 663 q 435 655 473 633 l 474 628 q 469 612 460 564 q 451 517 450 501 l 446 497 l 423 497 l 418 500 q 421 524 421 552 q 421 557 421 567 q 411 587 385 602 q 358 618 326 622 l 285 389 q 346 376 374 363 q 402 350 422 329 q 442 308 450 282 q 458 256 458 227 q 458 158 418 101 q 377 44 316 15 q 256 -14 221 -14 l 214 -14 l 198 -110 l 193 -114 l 161 -114 z m 286 623 q 217 620 187 579 q 157 539 157 489 q 157 459 175 437 q 192 416 247 399 z m 223 38 q 294 38 328 80 q 361 122 361 174 q 361 201 348 222 q 335 244 319 253 q 302 262 265 273 z"},"?":{"x_min":0,"x_max":444,"ha":444,"o":"m 199 187 q 175 210 167 227 q 158 244 158 263 q 158 284 170 309 q 183 333 228 379 q 284 437 304 469 q 324 501 324 537 q 324 572 298 593 q 272 614 231 614 q 198 614 173 598 q 148 582 125 524 l 120 521 l 96 524 l 94 529 q 124 606 135 652 q 174 676 205 686 q 236 695 270 695 q 320 695 363 677 q 407 659 428 623 q 449 587 449 544 q 449 514 440 489 q 431 463 413 441 q 394 418 365 395 q 335 371 294 343 q 257 318 239 303 q 221 288 212 272 q 203 257 203 243 q 203 222 220 205 l 220 199 l 205 187 z m 101 44 q 101 80 120 105 q 140 131 173 131 q 201 131 217 115 q 232 99 232 71 q 232 38 213 11 q 194 -16 159 -16 q 101 -16 101 44 z"},"<":{"x_min":0,"x_max":500,"ha":500,"o":"m 485 7 l 16 220 l 16 295 l 485 508 l 485 422 l 129 258 l 485 93 z"},"'":{"x_min":0,"x_max":250,"ha":250,"o":"m 273 663 q 273 646 260 627 l 141 457 l 107 457 l 177 665 q 191 708 227 708 q 246 708 259 695 q 273 682 273 663 z"},"=":{"x_min":0,"x_max":500,"ha":500,"o":"m 485 349 l 16 349 l 16 433 l 485 433 z m 485 172 l 16 172 l 16 256 l 485 256 z"},"a":{"x_min":0,"x_max":556,"ha":556,"o":"m 509 104 l 520 85 l 518 79 q 429 14 396 -4 q 363 -22 341 -22 q 326 -22 317 -9 q 308 4 308 24 q 308 44 315 83 q 323 123 349 226 q 267 85 202 31 q 136 -23 95 -23 q 72 -23 56 -3 q 40 17 40 69 q 40 115 53 176 q 67 237 92 300 q 104 331 122 350 q 139 370 197 412 q 254 454 279 462 q 303 471 333 471 q 354 471 384 465 q 413 458 438 445 l 482 472 l 499 460 q 486 431 469 354 l 433 188 q 414 101 414 81 q 414 62 426 62 q 442 62 503 104 z m 372 396 q 328 417 292 417 q 253 417 230 387 q 207 357 179 252 q 152 148 152 98 q 152 61 171 61 q 192 61 245 123 q 297 184 331 259 q 365 333 372 396 z m 337 507 z m 210 -32 z"},"L":{"x_min":0,"x_max":611,"ha":611,"o":"m 39 0 l 42 26 l 47 31 q 83 40 91 44 q 95 46 97 49 q 100 51 102 57 q 109 76 122 149 l 184 514 q 198 603 198 625 q 198 638 191 643 q 185 649 176 650 q 167 651 108 655 l 105 659 l 109 685 l 114 689 q 183 686 268 686 q 291 686 426 689 l 429 686 l 425 659 l 420 655 q 366 653 358 651 q 350 649 343 643 q 337 637 331 614 q 324 591 308 498 l 246 148 q 233 81 231 48 l 312 48 q 374 48 419 51 q 465 54 481 59 q 498 63 506 73 q 514 83 525 125 q 527 136 538 167 l 542 171 l 570 171 l 574 167 q 572 156 564 119 q 558 90 552 57 q 545 17 541 1 l 536 -3 q 454 -2 416 -2 l 219 0 q 106 0 42 -3 z"},"3":{"x_min":0,"x_max":500,"ha":500,"o":"m 10 28 l 39 182 l 43 186 l 68 184 l 72 178 q 69 151 69 130 q 69 73 99 47 q 129 21 176 21 q 245 21 282 80 q 319 140 319 221 q 319 279 291 311 q 262 342 209 342 q 178 342 138 328 l 133 333 l 149 385 q 162 381 182 381 q 258 381 295 421 q 331 461 331 518 q 331 564 305 586 q 278 608 238 608 q 196 608 167 589 q 137 570 112 524 l 106 521 l 85 530 l 84 536 l 138 643 q 162 667 201 678 q 241 689 281 689 q 358 689 404 653 q 449 618 449 553 q 449 522 437 494 q 425 466 403 446 q 381 425 350 405 q 318 385 295 378 l 294 375 q 374 366 410 325 q 447 285 447 223 q 447 165 415 110 q 383 55 319 18 q 254 -19 169 -19 q 124 -19 89 -10 q 54 0 13 22 z"},";":{"x_min":0,"x_max":250,"ha":250,"o":"m 83 370 q 83 406 104 431 q 125 456 158 456 q 187 456 204 438 q 222 419 222 389 q 222 354 202 327 q 182 300 146 300 q 116 300 99 318 q 83 336 83 370 z m -37 -173 l -55 -158 q -23 -112 9 -30 q 41 53 44 107 q 108 118 170 142 l 187 127 l 151 58 q 135 28 112 -9 q 88 -46 66 -76 q 44 -106 16 -138 z"},"J":{"x_min":0,"x_max":389,"ha":389,"o":"m 117 655 l 114 659 l 117 685 l 122 689 q 188 686 276 686 q 313 686 434 689 l 438 686 l 433 659 l 429 655 q 375 653 366 651 q 358 649 353 644 q 348 640 343 628 q 337 616 325 549 l 261 176 q 239 45 229 5 q 210 -73 175 -126 q 139 -180 95 -202 q 51 -225 -10 -225 q -33 -225 -54 -220 l -62 -197 l -57 -189 q -41 -191 -24 -191 q 21 -191 41 -178 q 62 -165 76 -135 q 90 -104 114 42 l 172 390 q 206 591 206 625 q 206 637 200 643 q 194 649 185 650 q 176 651 117 655 z"},"V":{"x_min":0,"x_max":667,"ha":667,"o":"m 250 -7 q 248 15 222 185 l 188 396 l 152 608 q 148 632 144 639 q 142 643 138 646 q 135 649 129 651 q 118 654 73 655 l 69 659 l 73 685 l 79 689 l 197 687 l 360 689 l 364 685 l 360 661 l 356 657 q 305 655 294 648 q 284 641 284 627 q 284 593 296 518 l 354 138 l 468 348 q 486 381 518 442 q 549 503 575 559 q 601 615 604 624 q 606 634 606 638 q 606 647 595 650 q 583 654 528 657 l 524 661 l 528 686 l 533 689 q 534 689 561 688 q 608 687 625 687 l 740 689 l 745 685 l 741 659 l 736 655 q 714 655 704 652 q 693 648 687 640 q 680 631 652 581 l 409 140 q 339 13 333 -7 z"},"\"":{"x_min":0,"x_max":500,"ha":500,"o":"m 273 663 q 273 646 260 627 l 141 457 l 107 457 l 177 665 q 191 708 227 708 q 246 708 259 695 q 273 682 273 663 z m 498 663 q 498 646 485 627 l 365 457 l 332 457 l 401 665 q 416 708 451 708 q 470 708 484 695 q 498 682 498 663 z"},"7":{"x_min":0,"x_max":500,"ha":500,"o":"m 77 -4 l 70 8 q 108 63 177 172 l 218 235 q 234 261 282 331 l 363 452 l 412 524 q 426 545 438 561 q 411 562 392 562 q 204 562 166 562 q 128 561 79 556 l 74 564 l 80 593 q 91 642 95 673 l 100 679 q 110 679 158 676 q 186 675 203 674 q 220 674 258 674 l 369 672 q 441 671 449 671 q 484 671 538 674 l 542 669 l 540 637 q 495 576 419 446 q 343 315 275 180 q 208 45 192 0 l 187 -4 q 144 -2 125 -2 q 106 -2 77 -4 z"},"S":{"x_min":0,"x_max":556,"ha":556,"o":"m 504 510 l 499 506 l 476 506 l 472 511 q 473 528 473 537 l 472 587 q 455 613 419 628 q 383 643 342 643 q 302 643 269 628 q 236 612 218 579 q 201 546 201 507 q 201 477 211 458 q 222 438 239 427 q 256 415 276 408 q 296 402 352 391 q 402 381 427 372 q 453 362 471 345 q 488 328 499 300 q 509 272 509 239 q 509 173 469 112 q 428 51 364 15 q 300 -21 221 -21 q 171 -21 125 -7 q 78 7 47 31 l 45 37 q 50 52 59 109 q 69 167 70 183 l 75 187 l 98 187 l 102 183 l 101 128 q 101 122 102 101 q 116 78 159 56 q 203 35 252 35 q 328 35 365 77 q 402 119 402 172 q 402 196 394 215 q 386 234 375 244 q 363 255 347 261 q 332 267 298 274 q 219 293 184 309 q 148 325 127 361 q 105 396 105 451 q 105 525 146 582 q 187 639 247 670 q 308 701 377 701 q 465 701 528 657 l 530 652 q 513 582 504 510 z"},"}":{"x_min":0,"x_max":333,"ha":333,"o":"m 341 318 l 341 299 q 292 299 272 274 q 253 250 245 203 l 214 24 q 202 -47 180 -73 q 152 -103 91 -103 l 23 -103 l 23 -83 q 64 -83 90 -53 q 109 -29 117 13 l 146 186 q 156 243 176 268 q 199 297 252 309 q 186 329 186 389 q 186 409 192 443 l 221 611 q 224 631 224 647 q 224 672 217 681 q 203 698 165 698 l 165 718 l 234 718 q 261 718 278 706 q 317 680 317 627 q 317 610 313 585 l 282 416 q 279 397 279 376 q 279 351 292 336 q 308 318 341 318 z"},"Z":{"x_min":0,"x_max":667,"ha":667,"o":"m 330 49 q 483 49 554 66 q 560 75 565 86 q 570 97 575 109 q 581 122 585 135 q 590 149 599 177 l 604 182 l 631 182 l 636 177 q 613 90 597 0 l 592 -4 q 578 -5 562 -5 q 552 -5 526 -4 l 447 -1 q 426 0 336 0 l 156 0 q 85 0 5 -4 l 1 1 l 6 28 q 15 35 86 123 l 211 278 l 493 635 l 367 635 q 293 635 261 633 q 229 631 200 627 q 172 624 169 621 q 166 618 154 589 q 143 560 133 521 l 127 516 l 100 516 l 96 520 q 120 651 123 683 l 129 690 q 282 686 449 686 q 506 686 674 689 l 678 685 l 674 658 q 599 572 530 484 l 189 50 z"},"x":{"x_min":0,"x_max":500,"ha":500,"o":"m -8 -8 q 0 14 5 47 q 10 80 10 86 q 10 91 9 97 l 34 99 l 40 68 q 54 62 65 62 q 83 62 103 74 q 123 87 159 135 q 196 183 207 200 q 191 291 183 327 q 175 364 160 376 q 145 387 130 387 q 111 387 92 375 q 72 362 62 344 l 57 342 l 41 351 l 40 356 q 88 434 96 457 q 135 477 170 477 q 216 477 240 451 q 264 426 272 396 q 281 365 289 304 q 359 407 384 433 q 409 458 429 467 q 448 476 466 476 q 480 476 500 468 q 482 426 477 358 l 456 354 l 446 382 q 436 387 427 387 q 401 387 375 363 q 348 339 296 264 q 312 165 323 125 q 334 86 346 74 q 357 62 370 62 q 392 62 444 107 l 450 106 l 461 88 l 460 83 q 375 8 349 -7 q 323 -21 303 -21 q 281 -21 263 -3 q 245 14 237 44 q 229 75 215 161 q 158 78 134 48 q 110 19 94 4 q 79 -10 65 -15 q 50 -21 35 -21 q 25 -21 19 -19 q 14 -18 -8 -8 z"},")":{"x_min":0,"x_max":333,"ha":333,"o":"m 107 729 q 149 682 193 608 q 236 535 254 476 q 272 417 272 342 q 272 279 258 225 q 243 171 210 111 q 177 51 122 -8 q 67 -67 -9 -128 l -15 -128 l -34 -109 l -33 -102 q 61 -9 112 127 q 164 263 164 413 q 164 594 80 707 l 82 713 l 101 729 z"},"&":{"x_min":0,"x_max":833,"ha":833,"o":"m 754 528 q 810 502 810 443 q 810 411 796 384 q 782 356 761 341 q 741 326 712 319 q 683 312 618 301 q 676 276 676 215 q 676 155 629 103 q 582 50 496 15 q 411 -20 318 -20 q 268 -20 224 -8 q 180 3 145 29 q 110 55 92 92 q 74 128 74 175 q 74 320 277 385 q 238 390 211 418 q 184 447 184 491 q 184 529 203 560 q 222 590 265 624 q 308 658 347 676 q 386 694 437 694 q 496 694 547 668 l 550 662 q 546 653 538 606 q 530 559 530 543 l 526 539 l 504 539 l 500 543 l 498 599 q 459 639 402 639 q 351 639 316 608 q 282 577 282 529 q 282 497 298 472 q 313 447 338 435 q 363 423 389 423 q 399 423 414 426 l 418 422 q 407 382 406 367 q 390 370 375 370 q 329 370 285 351 q 241 333 217 292 q 192 252 192 203 q 192 153 216 115 q 240 76 282 55 q 325 35 385 35 q 428 35 464 46 q 499 57 527 78 q 554 100 570 129 q 586 159 586 192 q 586 218 575 239 q 564 261 544 271 q 523 281 504 281 q 490 281 474 275 q 458 269 448 256 q 439 243 436 234 q 433 225 428 203 l 423 198 l 406 198 l 403 203 l 414 307 q 446 338 483 350 q 520 361 594 371 q 663 380 699 388 q 735 396 753 415 q 771 433 771 457 q 771 493 736 505 l 736 511 l 749 527 z"},"_":{"x_min":0,"x_max":499,"ha":499,"o":"m 0 -125 l 0 -75 l 499 -75 l 499 -125 z"},"v":{"x_min":0,"x_max":556,"ha":556,"o":"m 28 339 l 68 466 q 109 474 123 474 q 142 474 167 471 q 226 466 255 466 q 299 466 317 480 l 331 461 q 306 433 273 377 q 240 321 222 260 q 204 198 204 144 q 204 92 222 68 q 240 44 270 44 q 313 44 352 88 q 391 131 417 207 q 443 282 443 337 q 443 395 400 395 q 387 395 373 386 l 366 388 l 360 401 l 361 407 q 376 418 396 439 q 417 461 423 472 q 435 476 445 476 q 519 476 519 375 q 519 289 466 190 q 414 90 346 35 q 278 -21 214 -21 q 162 -21 128 15 q 94 51 94 122 q 94 161 106 201 q 117 241 146 284 q 175 328 259 412 q 238 407 225 405 q 211 403 165 403 l 121 404 q 116 404 89 401 l 57 338 l 52 334 l 31 334 z"},"O":{"x_min":0,"x_max":833,"ha":833,"o":"m 75 259 q 75 297 85 362 q 96 426 130 492 q 164 558 217 606 q 271 654 338 677 q 406 701 486 701 q 548 701 604 684 q 661 668 706 628 q 751 588 770 533 q 789 478 789 410 q 789 229 676 104 q 563 -21 375 -21 q 279 -21 211 12 q 143 45 109 107 q 75 169 75 259 z m 211 229 q 211 166 230 119 q 249 72 295 48 q 341 23 395 23 q 474 23 525 70 q 576 116 614 230 q 651 344 651 447 q 651 560 601 607 q 551 655 472 655 q 397 655 350 620 q 303 586 270 512 q 237 438 224 360 q 211 281 211 229 z m 492 729 z m 360 -32 z"},"(":{"x_min":0,"x_max":333,"ha":333,"o":"m 244 -128 q 196 -73 155 -1 q 113 71 96 129 q 79 188 79 258 q 79 322 94 376 q 108 430 141 490 q 174 550 229 609 q 284 667 360 729 l 366 729 l 385 709 l 384 703 q 290 608 239 472 q 188 337 188 188 q 188 95 209 21 q 231 -52 271 -106 l 270 -112 l 250 -128 z"},"C":{"x_min":0,"x_max":685,"ha":685,"o":"m 623 115 l 612 75 q 549 33 483 6 q 417 -21 336 -21 q 250 -21 188 11 q 126 43 96 101 q 66 159 66 244 q 66 349 106 444 q 146 539 254 620 q 362 701 497 701 q 528 701 562 696 q 596 691 630 681 q 663 671 687 656 l 688 650 q 659 558 651 491 l 647 487 l 621 487 l 616 491 q 619 567 619 572 q 619 584 613 592 q 608 600 585 614 q 562 627 527 635 q 492 643 454 643 q 406 643 366 630 q 326 618 292 584 q 258 551 238 497 q 218 443 210 384 q 202 325 202 270 q 202 182 227 135 q 251 88 294 67 q 337 46 393 46 q 422 46 452 52 q 482 58 509 68 q 536 78 612 124 z"},"W":{"x_min":0,"x_max":1000,"ha":1000,"o":"m 890 479 q 935 594 935 627 q 935 644 922 649 q 909 655 854 655 l 851 659 l 854 685 l 859 690 q 945 686 978 686 q 1023 686 1067 689 l 1071 685 l 1069 659 l 1065 654 q 1027 654 1019 645 q 1011 636 979 556 l 811 142 q 789 89 752 -8 l 668 -8 q 653 59 635 127 l 538 494 l 292 -8 l 209 -8 l 184 284 q 170 434 160 520 q 150 607 145 626 q 139 646 129 650 q 118 653 74 655 l 70 659 l 74 686 l 79 690 l 226 687 q 316 687 360 690 l 364 686 l 360 659 l 356 655 q 308 655 294 647 q 280 640 280 613 q 280 579 289 477 l 318 148 l 412 341 l 580 693 l 612 693 l 759 134 z"},"A":{"x_min":0,"x_max":722,"ha":722,"o":"m -30 -4 l -33 0 l -30 26 l -25 30 q 13 33 19 34 q 24 35 30 40 q 36 44 42 52 q 48 61 80 116 l 137 213 l 275 451 l 359 593 q 396 654 414 689 l 509 689 l 529 543 l 552 382 l 571 250 l 586 152 l 596 93 q 602 53 613 42 q 624 30 683 30 l 686 25 l 683 0 l 678 -4 q 568 0 531 0 q 499 0 388 -4 l 384 0 l 388 25 l 393 30 q 440 30 454 37 q 467 44 467 61 q 467 95 443 266 q 399 267 385 267 l 311 266 l 223 266 q 194 216 162 154 q 129 92 123 75 q 117 58 117 52 q 117 43 127 37 q 138 31 200 30 l 203 25 l 200 0 l 195 -4 q 194 -4 159 -2 q 112 0 88 0 q 74 0 -30 -4 z m 246 311 q 270 310 274 310 q 426 310 438 311 l 400 575 z m 468 729 z m 292 -32 z"},"f":{"x_min":0,"x_max":333,"ha":333,"o":"m 49 410 l 53 428 l 58 433 q 69 437 103 447 q 136 457 154 465 q 155 468 160 492 q 168 528 175 544 q 181 560 197 579 q 212 598 254 633 q 295 668 331 693 q 366 718 384 725 q 402 732 423 732 q 446 732 467 724 q 448 659 439 597 l 425 594 q 387 651 350 651 q 336 651 324 643 q 312 634 305 620 q 299 605 287 555 q 274 505 266 457 l 277 457 q 287 457 332 459 q 376 462 390 465 l 395 457 q 385 429 381 411 l 375 406 q 358 407 308 407 q 268 407 256 406 l 218 236 q 194 132 172 52 q 142 -56 114 -111 q 85 -167 41 -211 q -3 -255 -38 -271 q -60 -282 -80 -282 q -98 -282 -117 -273 q -94 -212 -85 -165 l -69 -162 q -50 -206 -21 -206 q -10 -206 -1 -201 q 9 -196 17 -184 q 25 -172 38 -124 q 50 -76 68 17 l 104 206 l 142 406 q 114 407 98 407 q 72 407 53 406 z"},"Q":{"x_min":0,"x_max":833,"ha":833,"o":"m 298 -15 q 192 2 133 72 q 75 141 75 255 q 75 329 98 412 q 121 495 175 562 q 228 628 307 664 q 385 701 486 701 q 582 701 651 666 q 720 630 754 568 q 789 505 789 410 q 789 287 736 189 q 683 90 592 34 q 502 -21 375 -21 q 346 -21 317 -18 q 368 -31 483 -82 q 549 -112 587 -124 q 625 -137 654 -137 q 669 -137 684 -129 q 699 -121 712 -104 q 724 -86 733 -50 l 737 -47 l 761 -55 l 764 -60 q 747 -134 709 -180 q 672 -227 618 -227 q 596 -227 575 -221 q 554 -215 533 -205 q 512 -195 464 -168 q 362 -109 323 -91 q 283 -72 251 -72 q 221 -72 199 -97 q 178 -122 177 -172 l 172 -175 l 151 -162 l 147 -155 q 147 -149 147 -147 q 147 -107 167 -75 q 186 -43 216 -28 q 247 -14 273 -14 q 282 -14 298 -15 z m 211 229 q 211 166 230 119 q 249 72 295 48 q 341 23 395 23 q 474 23 525 70 q 576 116 614 230 q 651 344 651 447 q 651 560 601 607 q 551 655 472 655 q 397 655 350 620 q 303 586 270 512 q 237 438 224 360 q 211 281 211 229 z"},"w":{"x_min":0,"x_max":833,"ha":833,"o":"m 26 338 q 59 430 63 467 q 89 473 112 473 q 135 473 164 471 q 221 465 248 465 q 291 465 319 477 l 333 461 q 277 398 238 313 q 198 228 198 146 q 198 46 253 46 q 266 46 280 53 q 294 61 321 93 q 349 125 370 169 q 391 213 403 257 q 416 300 429 364 q 442 428 442 444 l 442 450 q 505 461 548 477 l 561 468 q 494 236 494 125 q 494 81 511 62 q 528 44 551 44 q 573 44 600 64 q 627 84 657 128 q 687 172 704 233 q 721 294 721 338 q 721 366 709 382 q 698 399 675 399 q 661 399 648 392 l 642 393 l 634 407 l 636 413 q 677 443 702 470 q 715 474 726 474 q 759 474 779 448 q 798 422 798 374 q 798 304 763 227 q 729 151 677 93 q 626 35 578 7 q 529 -21 489 -21 q 452 -21 424 7 q 396 34 396 93 q 396 122 404 171 l 379 126 q 367 105 348 81 q 330 58 306 36 q 283 14 262 1 q 242 -12 226 -16 q 209 -21 192 -21 q 148 -21 119 14 q 89 50 89 119 q 89 185 120 246 q 152 308 257 412 q 218 401 179 401 q 174 401 160 402 q 133 403 125 403 q 105 403 85 399 q 75 378 69 365 q 59 340 57 337 l 51 333 l 30 333 z"},"-":{"x_min":0,"x_max":389,"ha":389,"o":"m 44 197 l 38 206 q 59 255 66 299 q 98 292 193 292 q 313 292 355 297 l 360 289 q 337 234 331 196 q 277 201 165 201 q 88 201 44 197 z"},"E":{"x_min":0,"x_max":611,"ha":611,"o":"m 20 0 l 23 26 l 28 31 q 66 40 74 45 q 78 47 81 52 q 84 56 89 77 q 94 98 125 271 l 162 489 q 180 597 180 625 q 180 638 174 644 q 168 649 159 650 q 150 651 91 655 l 88 659 l 92 686 l 96 689 q 174 686 305 686 q 329 686 602 689 l 607 684 q 606 672 593 601 q 586 562 582 529 l 578 525 l 552 525 l 548 529 q 550 586 550 598 q 550 612 546 618 q 543 623 529 628 q 516 633 477 637 q 439 641 405 641 q 351 641 316 635 l 286 482 q 279 448 268 382 q 374 380 402 380 q 446 380 497 382 l 500 376 l 487 333 l 481 329 q 391 331 300 333 q 283 333 260 333 l 229 158 q 215 82 212 48 l 293 48 q 355 48 401 51 q 446 54 463 59 q 479 63 487 73 q 495 83 506 125 q 509 136 519 167 l 523 171 l 552 171 l 555 167 l 522 1 l 517 -3 q 439 -2 410 -2 l 195 0 q 121 0 23 -3 z m 386 729 z m 270 -32 z"},"s":{"x_min":0,"x_max":444,"ha":444,"o":"m 50 144 l 72 144 l 77 140 l 78 96 q 97 73 131 55 q 165 38 203 38 q 229 38 251 46 q 272 54 283 74 q 294 93 294 114 q 294 132 285 146 q 276 160 261 168 q 246 176 212 183 q 163 194 142 200 q 122 207 106 219 q 90 232 80 254 q 69 277 69 303 q 69 330 79 354 q 89 378 108 395 q 126 413 167 438 q 208 463 230 470 q 252 478 284 478 q 350 478 405 446 q 396 399 388 332 l 384 328 l 362 328 l 358 332 l 353 377 q 331 398 300 410 q 270 422 241 422 q 207 422 184 402 q 161 382 161 351 q 161 317 184 302 q 207 288 273 275 q 319 266 341 256 q 363 245 378 221 q 393 196 393 164 q 393 130 378 104 q 364 78 321 44 q 277 10 245 -3 q 212 -17 160 -17 q 133 -17 106 -13 q 79 -9 29 10 l 27 15 q 32 32 38 76 q 45 120 46 140 z"},">":{"x_min":0,"x_max":500,"ha":500,"o":"m 485 220 l 16 7 l 16 93 l 371 258 l 16 422 l 16 508 l 485 295 z"},"l":{"x_min":0,"x_max":333,"ha":333,"o":"m 281 108 l 292 89 l 291 83 q 182 6 153 -8 q 125 -21 106 -21 q 85 -21 76 -4 q 67 13 67 35 q 67 79 97 213 l 165 523 q 170 548 177 584 q 183 620 183 629 q 183 640 177 646 q 170 653 154 653 q 137 654 104 654 l 100 659 l 103 680 l 108 684 q 214 697 307 730 l 319 719 q 277 546 237 355 l 190 134 q 184 104 184 86 q 184 65 197 65 q 216 65 276 108 z"},"8":{"x_min":0,"x_max":500,"ha":500,"o":"m 191 329 q 145 354 121 387 q 98 421 98 471 q 98 516 116 552 q 134 588 170 619 q 206 649 246 669 q 285 689 336 689 q 397 689 440 654 q 483 619 483 557 q 483 530 475 506 q 466 482 448 460 q 430 439 413 426 q 396 413 338 375 q 454 316 454 216 q 454 183 441 147 q 428 110 406 84 q 383 59 343 31 q 302 3 270 -9 q 237 -21 195 -21 q 121 -21 74 20 q 28 61 28 130 q 28 155 34 177 q 41 200 55 220 q 68 241 91 261 q 114 282 128 291 q 143 300 191 329 z m 309 392 q 349 419 376 455 q 404 490 404 537 q 404 590 376 615 q 347 641 304 641 q 256 641 225 608 q 194 576 194 527 q 194 491 215 460 q 236 430 309 392 z m 221 310 q 175 286 142 242 q 108 198 108 142 q 108 89 140 58 q 171 27 221 27 q 255 27 284 43 q 314 59 331 93 q 348 126 348 163 q 348 203 322 235 q 295 268 221 310 z"},"\\":{"x_min":0,"x_max":606,"ha":606,"o":"m 467 -27 l 464 -32 l 405 -32 l 399 -27 l 144 732 l 147 736 l 206 736 l 211 732 z"},"e":{"x_min":0,"x_max":444,"ha":444,"o":"m 378 111 l 390 91 l 388 85 q 302 24 249 2 q 196 -21 156 -21 q 120 -21 89 -6 q 58 9 44 38 q 31 66 31 98 q 31 151 51 233 q 71 316 103 356 q 134 396 204 436 q 274 476 324 476 q 367 476 394 454 q 420 433 420 392 q 420 342 391 302 q 361 262 292 234 q 223 207 150 194 q 145 159 145 129 q 145 81 167 64 q 190 46 218 46 q 238 46 264 54 q 290 62 307 71 q 324 81 373 112 z m 154 221 q 255 244 291 291 q 326 338 326 379 q 326 402 312 415 q 298 428 278 428 q 238 428 209 386 q 180 344 154 221 z m 318 507 z m 155 -32 z"},"b":{"x_min":0,"x_max":537,"ha":537,"o":"m 265 730 l 277 719 q 226 501 188 312 q 247 398 312 437 q 377 476 431 476 q 470 476 485 440 q 501 405 501 353 q 501 271 468 184 q 434 96 344 38 q 253 -21 177 -21 q 138 -21 108 -8 q 79 4 66 31 q 53 57 53 88 q 53 112 57 144 q 62 176 80 274 q 141 609 141 629 q 141 641 135 647 q 128 653 112 653 q 96 654 62 654 l 58 659 l 62 680 l 66 684 q 173 697 265 730 z m 162 114 q 162 69 182 48 q 202 27 231 27 q 257 27 284 47 q 311 66 333 110 q 356 154 371 215 q 386 277 386 323 q 386 365 375 385 q 364 405 345 405 q 329 405 302 390 q 275 375 247 344 q 219 312 201 276 q 183 240 172 196 q 162 152 162 114 z"},"%":{"x_min":0,"x_max":889,"ha":889,"o":"m 66 500 q 66 612 153 671 q 197 701 260 701 q 353 701 393 635 q 415 600 415 553 q 415 506 392 462 q 368 414 326 385 q 281 354 218 354 q 116 354 82 429 q 66 463 66 500 z m 160 456 q 160 424 175 405 q 190 386 214 386 q 276 386 304 498 q 318 554 318 598 q 318 669 263 669 q 206 669 177 563 q 160 505 160 456 z m 506 124 q 506 236 593 295 q 637 326 700 326 q 772 326 814 284 q 854 244 854 178 q 854 129 830 83 q 805 33 762 7 q 717 -21 658 -21 q 557 -21 522 53 q 506 86 506 124 z m 601 81 q 601 11 656 11 q 715 11 743 119 q 759 178 759 219 q 759 294 704 294 q 657 294 627 220 q 601 155 601 81 z m 711 726 l 239 -37 l 203 -37 l 200 -32 l 671 730 l 708 730 z"},"m":{"x_min":0,"x_max":833,"ha":833,"o":"m 51 -19 l 42 -4 q 42 -2 53 33 q 77 110 100 217 q 124 324 124 360 q 124 370 119 376 q 115 382 109 382 q 104 382 94 376 q 85 370 39 335 l 32 336 l 22 353 l 23 360 q 58 390 105 425 q 152 461 175 470 q 197 479 211 479 q 224 479 231 470 q 238 461 238 448 q 238 433 231 399 q 225 366 191 220 q 255 339 335 409 q 416 479 465 479 q 480 479 490 469 q 500 458 500 440 q 500 426 496 400 q 491 374 479 325 l 452 220 q 514 344 599 410 q 684 477 738 477 q 756 477 765 463 q 773 450 773 429 q 773 395 755 326 q 699 116 699 80 q 699 63 710 63 q 724 63 785 108 l 791 108 l 802 89 l 800 83 q 719 23 680 1 q 642 -21 617 -21 q 601 -21 591 -8 q 581 4 581 22 q 581 44 589 83 q 598 123 620 207 q 640 284 645 312 q 651 340 651 355 q 651 378 635 378 q 624 378 601 364 q 578 350 543 311 q 509 273 483 223 q 456 173 437 96 q 417 19 417 -4 q 382 -4 313 -19 l 302 -4 q 330 66 359 191 q 388 315 388 358 q 388 369 383 374 q 378 379 372 379 q 359 379 335 364 q 311 348 276 302 q 241 256 216 208 q 190 159 175 93 q 160 27 158 0 q 126 0 51 -19 z"},"#":{"x_min":0,"x_max":482,"ha":482,"o":"m 107 0 l 138 167 l 66 167 l 80 243 l 153 243 l 190 443 l 118 443 l 132 519 l 204 519 l 231 664 l 268 664 l 241 519 l 353 519 l 379 664 l 416 664 l 389 519 l 461 519 l 447 443 l 375 443 l 337 243 l 410 243 l 396 167 l 323 167 l 292 0 l 255 0 l 287 167 l 175 167 l 144 0 z m 189 243 l 301 243 l 338 443 l 227 443 z"},",":{"x_min":0,"x_max":250,"ha":250,"o":"m -29 -173 l -47 -158 q -16 -112 16 -30 q 48 53 52 107 q 115 118 178 142 l 194 127 l 158 58 q 143 28 119 -9 q 96 -46 73 -76 q 51 -106 23 -138 z"},"n":{"x_min":0,"x_max":556,"ha":556,"o":"m 43 -18 l 30 -6 q 45 32 69 121 q 93 210 104 276 q 115 342 115 360 q 115 377 104 377 q 89 377 34 336 l 27 336 l 17 354 l 18 360 q 43 381 77 407 q 110 434 138 451 q 165 468 179 473 q 192 478 204 478 q 230 478 230 446 q 230 423 222 379 q 213 335 185 230 q 240 333 324 405 q 408 477 460 477 q 501 477 501 431 q 501 405 490 358 q 479 311 454 220 q 438 159 431 125 q 425 91 425 82 q 425 63 437 63 q 456 63 509 104 l 515 103 l 525 84 l 524 78 q 440 15 404 -3 q 368 -21 342 -21 q 322 -21 315 -5 q 308 11 308 28 q 308 67 342 189 q 379 321 379 357 q 379 377 360 377 q 352 377 336 370 q 321 362 291 331 q 262 301 237 262 q 212 224 194 179 q 176 134 164 82 q 151 31 148 0 q 86 -4 43 -18 z"},"h":{"x_min":0,"x_max":556,"ha":556,"o":"m 266 730 l 278 719 q 208 419 173 250 q 240 356 320 417 q 400 477 451 477 q 491 477 491 435 q 491 411 485 382 q 478 352 447 239 q 413 115 413 85 q 413 63 426 63 q 436 63 449 71 q 462 79 495 103 l 500 103 l 511 85 l 509 79 q 426 16 390 -2 q 353 -21 331 -21 q 317 -21 306 -9 q 296 2 296 29 q 296 48 300 70 q 304 91 323 160 q 370 337 370 361 q 370 383 352 383 q 337 383 314 369 q 277 346 240 297 q 202 248 176 188 q 160 148 141 76 q 129 30 129 2 q 114 2 79 -5 q 43 -13 26 -18 l 16 -8 q 48 98 82 276 q 116 455 130 547 l 139 598 q 143 620 143 629 q 143 640 136 646 q 130 653 113 653 q 97 654 64 654 l 60 659 l 63 680 l 67 684 q 173 697 266 730 z"},"z":{"x_min":0,"x_max":500,"ha":500,"o":"m 26 26 l 363 381 q 326 362 287 362 q 261 362 205 370 q 158 376 142 376 q 132 376 121 375 q 115 363 99 326 l 94 322 l 73 324 l 71 329 l 114 466 q 141 476 166 476 q 203 476 271 457 q 334 439 376 439 q 399 439 415 447 q 431 455 443 476 l 463 468 l 449 417 l 124 78 q 181 103 216 103 q 241 103 292 93 q 346 83 368 83 q 375 83 391 86 l 416 140 l 421 143 l 440 141 l 443 137 q 425 87 407 -3 q 384 -16 350 -16 q 324 -16 307 -13 q 290 -10 228 6 q 160 24 117 24 q 68 24 39 -9 z"},"B":{"x_min":0,"x_max":667,"ha":667,"o":"m 23 -3 l 20 0 l 23 26 l 28 31 l 42 35 q 73 42 79 49 q 86 57 99 129 q 113 201 146 397 q 180 593 180 625 q 180 638 174 643 q 168 649 159 650 q 150 651 91 655 l 88 659 l 92 686 l 96 689 q 162 686 248 686 q 251 686 312 688 q 370 690 428 690 q 473 690 509 684 q 545 678 574 659 q 603 641 617 613 q 631 586 631 551 q 631 522 621 495 q 610 468 590 445 q 570 422 543 406 q 515 390 499 384 q 482 379 426 364 q 524 354 564 316 q 604 277 604 214 q 604 122 522 58 q 440 -6 322 -6 q 289 -6 242 -3 q 188 0 159 0 q 85 0 23 -3 z m 265 377 q 281 376 302 376 q 363 376 394 385 q 424 395 447 415 q 470 435 484 470 q 498 506 498 543 q 498 585 469 614 q 439 642 365 642 q 339 642 312 639 q 310 624 291 524 z m 212 51 q 290 39 325 39 q 401 39 435 94 q 468 149 468 212 q 468 251 453 281 q 437 311 406 323 q 375 334 310 334 q 283 334 257 333 l 238 220 q 222 123 212 51 z"},"K":{"x_min":0,"x_max":722,"ha":722,"o":"m 273 340 q 305 362 347 400 q 389 438 467 514 q 545 591 568 617 q 590 643 594 651 q 597 659 597 672 l 597 685 l 601 689 q 623 686 636 686 q 706 686 756 689 l 760 685 l 755 657 l 751 653 q 718 652 708 649 q 697 646 682 638 q 668 629 616 584 q 564 540 508 486 l 396 381 l 588 108 q 628 51 642 41 q 655 31 692 29 l 696 25 l 693 0 l 688 -4 l 673 -3 q 609 0 571 0 q 546 0 510 -4 q 442 102 397 166 q 353 231 272 334 l 248 191 q 237 125 233 97 q 230 70 230 61 q 230 45 240 39 q 251 33 270 32 l 322 29 l 325 25 l 322 1 l 318 -3 q 261 0 157 0 q 77 0 4 -3 l 0 0 l 3 25 l 8 29 q 12 30 30 31 q 71 32 79 38 q 87 43 94 59 q 100 74 120 187 l 165 447 q 190 594 190 625 q 190 634 187 640 q 184 645 177 648 q 169 651 146 652 l 102 655 l 98 659 l 102 685 l 106 689 q 173 686 261 686 q 297 686 419 689 l 422 686 l 417 659 l 413 655 q 359 653 352 651 q 344 649 337 644 q 331 638 325 620 q 319 602 304 514 z"},"R":{"x_min":0,"x_max":722,"ha":722,"o":"m 584 136 q 622 70 633 56 q 644 41 653 36 q 661 31 694 29 l 698 25 l 696 1 l 691 -3 q 655 0 608 0 q 562 0 514 -3 q 381 252 310 358 l 314 374 q 328 373 343 373 q 428 373 477 416 q 526 458 526 539 q 526 645 405 645 q 354 645 326 637 l 261 261 q 232 94 232 71 l 232 60 q 232 47 239 40 q 247 34 273 32 l 324 29 l 327 25 l 324 1 l 320 -3 q 239 0 159 0 q 80 0 6 -3 l 2 0 l 5 25 l 10 29 l 33 31 q 62 32 76 34 q 90 37 100 77 q 110 117 122 187 l 167 446 q 192 590 192 625 q 192 642 184 646 q 175 650 148 652 l 104 655 l 100 659 l 104 685 l 109 689 q 171 686 263 686 l 456 690 q 582 690 620 646 q 658 602 658 547 q 658 483 612 432 q 565 380 453 358 z"},"T":{"x_min":0,"x_max":611,"ha":611,"o":"m 116 29 q 121 30 139 31 q 179 32 186 37 q 194 42 201 55 q 208 69 230 198 l 271 436 l 305 634 q 238 634 205 633 q 172 631 154 627 q 135 623 131 620 q 127 617 121 606 q 115 595 107 565 q 99 535 95 516 l 90 512 l 62 512 l 59 517 q 71 583 83 684 l 88 689 q 99 689 155 687 q 261 682 371 682 q 438 682 532 684 q 627 686 665 689 l 672 681 q 644 542 643 516 l 638 512 l 609 512 l 606 516 q 610 556 610 589 q 610 615 604 622 q 599 629 569 632 q 540 634 490 634 l 436 634 l 396 428 l 352 167 q 342 104 339 76 q 338 67 338 61 q 338 48 346 41 q 354 34 378 32 l 430 29 l 434 25 l 431 1 l 426 -3 q 369 0 266 0 q 189 0 112 -3 l 109 0 l 111 25 z"},"P":{"x_min":0,"x_max":667,"ha":667,"o":"m 117 689 q 175 686 260 686 q 332 686 400 688 q 440 689 471 689 q 541 689 581 671 q 622 652 646 613 q 671 575 671 521 q 671 421 597 352 q 524 282 424 282 q 376 282 325 300 l 320 332 l 323 335 q 360 322 394 322 q 438 322 471 350 q 504 378 521 424 q 538 470 538 518 q 538 579 506 611 q 474 644 411 644 q 389 644 337 636 q 319 547 306 466 l 273 281 q 255 177 242 81 q 240 71 240 61 q 240 48 248 41 q 256 34 280 32 l 332 29 l 335 25 l 333 1 l 328 -3 q 257 0 178 0 q 85 0 14 -3 l 11 0 l 14 25 l 18 29 q 22 30 41 31 q 82 32 90 38 q 98 43 104 58 q 110 73 130 189 l 176 449 q 201 594 201 625 q 201 634 198 640 q 194 645 187 648 q 180 651 157 652 l 112 655 l 108 659 l 112 685 z"},"|":{"x_min":0,"x_max":500,"ha":500,"o":"m 212 0 l 212 731 l 289 731 l 289 0 z"},"t":{"x_min":0,"x_max":389,"ha":389,"o":"m 154 406 l 52 406 l 49 411 l 52 428 l 58 434 q 98 443 167 466 q 168 478 174 514 q 184 568 184 604 q 213 611 272 632 q 299 642 306 644 l 317 632 q 301 584 272 458 l 323 458 q 381 458 405 462 l 411 454 q 404 432 399 407 l 393 402 q 357 406 314 406 l 262 406 q 253 365 242 312 l 222 217 l 207 143 q 201 111 199 102 q 198 93 198 85 q 198 73 205 66 q 211 60 221 60 q 230 60 240 64 q 250 68 268 79 q 286 90 329 121 l 336 120 l 346 101 l 345 95 q 232 13 197 -4 q 162 -21 140 -21 q 112 -21 97 -3 q 83 14 83 42 q 83 61 88 87 q 93 114 115 216 q 153 392 154 406 z"},"M":{"x_min":0,"x_max":944,"ha":944,"o":"m 757 689 q 829 684 840 684 l 978 689 l 982 685 l 979 659 l 973 655 q 968 654 949 652 q 930 650 919 647 q 909 645 903 637 q 896 629 892 614 q 887 599 879 557 l 811 164 q 797 77 797 61 q 797 47 805 41 q 813 35 838 33 l 884 29 l 887 25 l 883 0 l 878 -3 q 801 0 728 0 q 659 0 582 -3 l 578 1 l 581 25 l 585 28 q 639 36 649 39 q 660 42 668 67 q 675 93 691 186 l 728 403 l 756 584 q 550 255 446 68 l 398 -18 l 371 -18 l 309 239 l 230 549 l 156 250 q 116 87 116 63 q 116 45 125 39 q 133 32 195 29 l 199 25 l 196 1 l 192 -3 q 141 0 86 0 q 30 0 -18 -3 l -22 1 l -20 25 l -15 29 q 32 34 40 43 q 48 53 69 122 q 89 192 120 307 l 177 521 q 197 598 197 616 q 197 643 170 647 q 144 652 104 654 l 101 659 l 104 684 l 108 688 q 183 685 222 685 q 266 685 323 688 l 376 469 l 450 175 q 491 241 500 256 l 690 574 z"},"g":{"x_min":0,"x_max":500,"ha":500,"o":"m 142 11 q 116 35 116 61 q 116 66 118 73 q 120 80 121 81 q 123 83 129 87 q 194 126 209 139 l 190 139 q 134 139 94 168 q 55 198 55 264 q 55 296 64 326 q 74 356 91 380 q 107 403 125 416 q 142 428 177 444 q 212 459 240 468 q 267 477 287 477 q 303 477 319 474 q 334 472 341 470 q 348 468 365 461 l 380 456 q 381 455 409 453 q 438 452 452 452 q 464 452 495 454 q 516 455 522 455 l 528 447 l 517 396 q 507 398 479 399 q 451 401 447 401 q 442 401 430 400 q 441 375 441 343 q 441 309 429 275 q 417 242 400 220 q 383 198 360 185 q 336 171 296 156 q 269 145 255 138 q 242 131 234 121 q 226 111 226 104 q 226 94 235 83 q 244 71 293 37 q 364 -13 388 -41 q 412 -70 412 -110 q 412 -187 337 -233 q 263 -279 158 -279 q 95 -279 46 -263 q -3 -248 -26 -217 q -50 -187 -50 -152 q -50 -110 -13 -69 q 24 -28 112 1 z m 158 265 q 158 215 179 194 q 200 173 232 173 q 266 173 288 197 q 311 221 322 262 q 334 303 334 343 q 334 392 312 412 q 291 432 260 432 q 211 432 185 381 q 158 329 158 265 z m 164 -8 l 120 -29 q 99 -41 85 -51 q 71 -61 61 -75 q 50 -89 44 -105 q 39 -121 39 -138 q 39 -171 57 -194 q 74 -216 106 -229 q 139 -242 178 -242 q 238 -242 273 -214 q 308 -186 308 -146 q 308 -124 291 -102 q 273 -81 164 -8 z"},"j":{"x_min":0,"x_max":333,"ha":333,"o":"m 207 627 q 207 658 226 679 q 245 701 275 701 q 300 701 315 686 q 329 670 329 646 q 329 614 311 591 q 293 567 262 567 q 234 567 220 584 q 207 601 207 627 z m -59 -279 q -50 -250 -48 -198 l -35 -195 q -18 -219 -7 -224 q 3 -229 13 -229 q 21 -229 28 -224 q 39 -215 46 -191 q 59 -150 99 46 l 142 264 q 157 343 157 363 q 157 378 146 378 q 127 378 60 331 l 53 332 l 43 349 l 44 355 q 147 434 189 456 q 231 478 257 478 q 283 478 283 437 q 283 411 259 308 l 226 164 q 197 40 175 -35 q 154 -111 130 -153 q 106 -194 62 -238 q 34 -268 15 -276 q -3 -284 -26 -284 q -43 -284 -59 -279 z"},"i":{"x_min":0,"x_max":333,"ha":333,"o":"m 192 627 q 192 658 211 679 q 230 701 260 701 q 285 701 300 685 q 314 670 314 646 q 314 616 297 592 q 279 567 248 567 q 218 567 205 584 q 192 602 192 627 z m 39 332 l 29 349 l 30 355 q 116 422 164 450 q 212 478 239 478 q 251 478 260 467 q 269 457 269 440 q 269 419 261 386 q 253 354 229 262 q 187 105 187 80 q 187 73 191 68 q 195 63 200 63 q 215 63 278 108 l 284 108 l 295 88 l 293 82 q 259 58 211 26 q 164 -5 144 -13 q 124 -21 108 -21 q 89 -21 80 -7 q 71 7 71 30 q 71 52 76 81 q 82 109 101 180 q 142 336 142 364 q 142 378 130 378 q 112 378 45 331 z m 105 -32 z"},"y":{"x_min":0,"x_max":556,"ha":556,"o":"m 24 -181 l 85 -142 l 100 -147 q 99 -158 99 -167 q 99 -193 117 -213 q 134 -232 164 -232 q 181 -232 197 -225 q 213 -218 229 -201 q 246 -185 261 -153 q 277 -121 295 -60 q 314 0 327 56 l 354 164 q 288 68 234 24 q 180 -20 150 -20 q 131 -20 116 3 q 102 25 102 79 q 102 106 120 271 q 124 334 124 342 q 124 368 120 376 q 116 384 106 384 q 90 384 34 343 l 27 344 l 18 360 l 18 368 l 76 413 q 119 447 148 462 q 177 477 196 477 q 215 477 226 461 q 236 445 236 416 q 236 398 228 323 l 218 236 q 209 150 209 114 q 209 82 216 75 q 222 69 227 69 q 238 69 263 90 q 287 112 322 168 q 357 224 382 303 q 408 381 417 450 l 529 475 l 540 465 q 537 458 517 393 q 497 328 472 231 q 440 107 417 35 q 394 -37 363 -93 q 332 -149 292 -191 q 252 -233 210 -256 q 168 -279 126 -279 q 83 -279 54 -258 q 24 -236 24 -192 z m 337 507 z m 467 -32 z"},"@":{"x_min":0,"x_max":697,"ha":697,"o":"m 703 367 q 703 312 679 257 q 655 202 603 162 q 550 121 498 121 q 455 119 431 136 q 406 154 406 188 q 372 126 302 126 q 184 126 184 254 q 184 348 238 416 q 296 489 388 489 q 438 489 453 457 l 457 477 l 542 492 l 554 481 q 528 385 512 303 q 496 221 496 200 q 496 178 504 171 q 511 164 522 164 q 535 162 564 183 q 592 205 612 255 q 634 309 634 368 q 634 486 537 542 q 484 572 406 572 q 329 572 257 532 q 186 493 147 421 q 109 352 109 269 q 109 158 175 89 q 240 20 354 20 q 485 20 581 104 l 593 92 q 589 80 584 63 q 479 -21 341 -21 q 147 -21 63 112 q 21 179 21 265 q 21 354 67 430 q 114 509 202 559 q 291 609 408 609 q 532 609 616 544 q 703 477 703 367 z m 438 396 q 438 452 392 452 q 368 452 343 428 q 317 402 298 352 q 279 301 279 257 q 279 204 292 187 q 306 170 325 170 q 349 170 375 200 q 407 237 428 329 q 438 373 438 396 z"},".":{"x_min":0,"x_max":250,"ha":250,"o":"m 41 52 q 41 89 62 114 q 83 138 116 138 q 144 138 162 121 q 180 103 180 71 q 180 38 160 10 q 141 -17 104 -17 q 74 -17 57 1 q 41 20 41 52 z"},"p":{"x_min":0,"x_max":556,"ha":556,"o":"m 26 353 l 27 360 q 65 392 106 423 q 148 455 171 467 q 194 480 211 480 q 242 480 242 447 q 242 430 233 386 q 224 342 205 266 q 245 329 278 366 q 310 404 365 441 q 421 478 464 478 q 482 478 495 466 q 507 454 515 422 q 523 390 523 357 q 523 297 499 224 q 475 150 450 116 q 429 85 378 51 q 327 16 293 0 q 259 -17 213 -17 q 182 -17 157 -10 q 146 -57 130 -127 q 115 -197 112 -212 q 110 -228 108 -258 q 97 -258 50 -267 q 4 -275 -3 -279 l -13 -271 l 31 -103 q 54 -10 88 148 q 121 305 126 343 q 128 353 128 360 q 128 370 124 376 q 119 382 113 382 q 107 382 95 374 q 83 366 43 335 l 37 336 z m 168 59 q 216 33 263 33 q 285 33 303 43 q 321 53 338 81 q 355 108 371 156 q 386 203 397 248 q 407 292 407 339 q 407 370 402 383 q 396 396 382 396 q 369 396 343 382 q 316 369 285 333 q 253 298 229 252 q 205 207 196 176 q 188 146 168 59 z"},"X":{"x_min":0,"x_max":722,"ha":722,"o":"m 519 689 q 570 686 618 686 l 771 689 l 773 686 l 770 659 l 765 655 q 721 654 709 649 q 698 645 664 611 q 629 578 544 487 l 445 381 l 538 196 q 609 53 620 44 q 631 34 688 30 l 691 26 l 688 1 l 683 -3 l 528 0 q 516 0 382 -3 l 379 0 l 383 26 l 388 30 q 436 31 449 36 q 462 42 462 53 q 462 59 459 71 q 455 82 433 128 l 391 213 l 354 283 l 265 183 q 243 159 211 119 q 179 79 175 70 q 170 61 170 56 q 170 42 188 36 q 205 30 256 29 l 259 25 l 256 1 l 250 -3 l 217 -2 q 136 0 99 0 q 48 0 -6 -3 l -9 0 l -5 25 l -1 29 q 41 30 56 37 q 71 43 98 73 l 331 326 l 232 522 q 224 540 199 586 q 174 631 166 640 q 158 648 149 651 q 140 653 83 655 l 80 659 l 84 686 l 88 689 l 262 687 q 328 687 402 689 l 405 686 l 401 659 l 396 655 l 364 654 q 337 652 331 648 q 325 643 325 635 q 325 613 388 489 l 422 422 l 501 511 l 538 556 q 559 581 575 603 q 591 625 593 629 q 595 634 595 638 q 595 646 583 649 q 572 653 513 655 l 510 659 l 514 686 z"},"*":{"x_min":0,"x_max":444,"ha":444,"o":"m 287 340 l 279 345 q 274 440 268 497 q 199 431 159 388 l 149 389 q 138 412 121 440 l 107 464 l 109 468 l 206 504 q 232 513 254 524 q 236 533 195 552 l 111 589 l 109 596 q 135 627 154 670 l 163 670 q 225 594 270 551 q 278 599 284 657 l 288 697 l 293 702 q 318 692 356 686 l 381 682 l 384 675 q 314 560 303 536 q 310 538 376 549 q 409 554 448 565 l 456 558 q 453 535 453 518 q 453 503 455 476 l 449 471 q 367 495 295 507 q 299 500 315 470 l 337 430 l 368 376 l 365 368 q 320 355 287 340 z"},"Y":{"x_min":0,"x_max":611,"ha":611,"o":"m 145 29 q 151 30 167 31 q 205 32 213 36 q 221 40 227 50 q 233 61 242 104 l 258 191 q 267 235 267 246 q 267 274 236 378 q 206 482 182 529 q 159 576 137 590 q 116 603 91 603 q 77 603 61 595 l 56 599 l 56 621 l 60 628 q 86 647 108 666 q 141 695 144 696 q 165 699 173 699 q 197 699 221 689 q 245 678 269 644 q 293 609 315 538 q 337 467 354 384 q 368 316 371 304 q 396 364 413 399 q 430 433 463 489 q 497 545 534 592 q 571 638 595 657 q 619 676 636 682 q 654 689 673 689 l 667 599 q 639 593 615 578 q 583 558 544 512 q 505 466 467 399 q 429 332 411 286 q 394 241 380 162 q 367 84 367 62 q 367 45 378 39 q 389 33 407 32 l 459 29 l 462 25 l 459 1 l 455 -3 q 398 0 294 0 q 218 0 141 -3 l 138 0 l 140 25 z m 396 729 z m 284 -32 z"},"c":{"x_min":0,"x_max":444,"ha":444,"o":"m 396 112 l 407 91 l 405 85 q 322 25 268 1 q 214 -22 167 -22 q 128 -22 97 -4 q 66 14 52 46 q 39 79 39 115 q 39 159 49 208 q 59 257 74 294 q 90 330 104 348 q 119 366 138 380 q 157 395 207 425 q 242 448 255 455 q 269 461 290 467 q 311 472 334 472 q 381 472 438 448 l 439 442 q 432 425 422 381 q 411 336 408 309 l 402 305 l 377 305 l 374 309 q 378 335 378 357 q 378 362 377 372 q 335 409 288 409 q 253 409 233 396 q 213 383 199 357 q 186 332 170 264 q 153 196 153 143 q 153 99 173 72 q 193 45 229 45 q 257 45 293 58 q 328 71 390 112 z"},"!":{"x_min":0,"x_max":333,"ha":333,"o":"m 140 189 l 127 198 q 130 222 141 328 l 160 526 q 169 617 171 666 q 253 680 310 695 l 321 686 l 225 376 q 186 250 179 214 z m 67 44 q 67 70 76 89 q 85 108 101 120 q 116 131 139 131 q 168 131 183 115 q 199 98 199 71 q 199 40 180 12 q 161 -16 123 -16 q 67 -16 67 44 z"},"/":{"x_min":0,"x_max":315,"ha":315,"o":"m -2 -27 l 253 732 l 259 736 l 318 736 l 321 732 l 65 -27 l 60 -32 l 0 -32 z"},"[":{"x_min":0,"x_max":333,"ha":333,"o":"m 383 689 q 358 689 301 686 q 287 685 281 681 q 275 678 271 663 l 257 589 q 241 502 227 410 l 178 71 q 167 -12 167 -45 q 167 -63 183 -67 q 199 -72 278 -75 l 281 -80 l 277 -105 l 272 -109 q 242 -106 136 -106 q 73 -106 48 -109 l 42 -103 q 59 -34 101 239 q 144 513 167 717 l 175 723 q 229 720 277 720 q 333 720 389 724 l 392 719 l 388 692 z"},"6":{"x_min":0,"x_max":500,"ha":500,"o":"m 466 604 l 458 601 q 424 635 374 635 q 298 635 249 552 q 200 469 178 338 q 246 416 328 416 q 391 416 433 375 q 475 333 475 258 q 475 209 459 165 q 443 120 422 92 q 401 63 364 35 q 326 7 292 -7 q 259 -21 217 -21 q 159 -21 117 7 q 76 35 58 86 q 40 136 40 202 q 40 265 55 330 q 70 396 93 444 q 115 492 150 538 q 186 585 234 621 q 283 656 327 673 q 371 689 412 689 q 448 689 487 673 z m 159 147 q 159 26 243 26 q 300 26 325 94 q 351 162 351 233 q 351 298 328 323 q 305 349 270 349 q 216 349 188 293 q 159 236 159 147 z"},"r":{"x_min":0,"x_max":389,"ha":389,"o":"m 58 -19 l 48 -6 q 86 124 104 219 q 121 315 121 354 q 121 379 110 379 q 96 379 43 339 l 36 340 l 27 356 l 27 363 q 112 433 150 456 q 188 478 207 478 q 221 478 228 467 q 235 456 235 441 q 235 424 231 405 q 228 385 194 244 l 201 244 q 224 298 250 346 q 276 394 301 424 q 326 455 344 464 q 363 474 384 474 q 397 474 409 471 l 413 466 q 405 443 399 401 q 393 358 393 333 l 381 326 q 358 347 330 347 q 306 347 285 331 q 264 315 238 265 q 212 215 193 146 q 174 77 165 2 q 140 -2 110 -6 q 80 -10 58 -19 z"},"2":{"x_min":0,"x_max":500,"ha":500,"o":"m 3 -3 l 0 1 l 3 24 q 9 31 48 67 q 103 119 175 201 q 248 283 287 356 q 327 430 327 490 q 327 539 302 568 q 277 597 227 597 q 193 597 171 586 q 148 574 133 555 q 119 536 97 494 l 91 491 l 68 499 l 66 504 l 121 636 q 157 669 192 679 q 227 689 261 689 q 317 689 361 668 q 404 647 427 609 q 450 570 450 516 q 450 488 445 466 q 440 444 427 419 q 415 395 385 357 q 355 319 326 290 q 296 260 232 196 l 138 106 l 138 100 l 191 100 l 316 101 q 378 102 398 103 q 419 105 445 110 l 453 103 q 442 80 421 0 l 417 -4 q 283 0 214 0 z"},"{":{"x_min":0,"x_max":333,"ha":333,"o":"m 16 296 l 16 316 q 65 316 85 341 q 104 365 112 412 l 143 591 q 155 662 178 688 q 206 718 266 718 l 334 718 l 334 698 q 293 698 268 668 q 248 644 241 602 l 211 429 q 202 372 181 347 q 158 318 105 306 q 171 286 171 226 q 171 206 166 172 l 137 3 q 133 -17 133 -32 q 133 -57 141 -66 q 155 -83 192 -83 l 192 -103 l 123 -103 q 96 -103 79 -91 q 40 -65 40 -13 q 40 5 44 29 l 75 199 q 79 218 79 238 q 79 264 65 279 q 49 296 16 296 z"},"9":{"x_min":0,"x_max":500,"ha":500,"o":"m 53 -4 q 52 11 43 47 q 34 83 27 99 l 50 110 q 85 30 164 30 q 209 30 243 60 q 278 90 305 160 q 332 230 351 328 q 281 246 205 246 q 141 246 99 289 q 57 332 57 417 q 57 464 70 507 q 83 549 108 578 q 132 607 172 634 q 212 661 243 674 q 274 687 313 687 q 366 687 409 659 q 451 632 470 580 q 490 527 490 465 q 490 404 474 334 q 459 264 423 194 q 388 124 335 74 q 283 24 234 1 q 186 -21 135 -21 q 99 -21 53 -4 z m 177 427 q 177 375 200 346 q 223 318 261 318 q 293 318 318 341 q 343 363 354 412 q 366 461 366 512 q 366 547 357 578 q 348 608 327 623 q 307 637 281 637 q 256 637 237 625 q 217 613 205 588 q 193 564 185 527 q 177 490 177 449 z"}," ":{"x_min":0,"x_max":250,"ha":250,"o":""},"I":{"x_min":0,"x_max":389,"ha":389,"o":"m 4 -3 l 0 0 l 3 25 l 8 29 q 12 30 30 31 q 71 32 79 38 q 87 43 94 59 q 100 74 120 187 l 165 447 q 190 594 190 625 q 190 634 187 640 q 184 645 177 648 q 169 651 146 652 l 102 655 l 98 659 l 102 685 l 106 689 q 173 686 261 686 q 297 686 419 689 l 422 686 l 417 659 l 413 655 q 357 653 351 651 q 343 648 338 644 q 333 640 329 630 q 322 615 307 535 l 243 165 q 230 81 230 61 q 230 45 240 39 q 250 33 271 32 l 322 29 l 325 25 l 322 1 l 318 -3 q 261 0 157 0 q 77 0 4 -3 z m 274 729 z m 147 -32 z"},"H":{"x_min":0,"x_max":778,"ha":778,"o":"m 554 387 q 590 594 590 626 q 590 635 586 641 q 582 646 574 648 q 566 651 544 652 l 500 655 l 497 659 l 501 686 l 505 689 q 562 686 643 686 q 706 686 818 689 l 821 686 l 816 659 l 812 655 q 757 653 749 651 q 742 649 737 644 q 731 640 728 631 q 722 616 707 541 l 644 175 q 629 83 629 61 q 629 46 639 39 q 649 33 671 32 l 721 29 l 724 25 l 721 1 l 717 -3 q 660 0 567 0 q 478 0 403 -3 l 399 0 l 402 25 l 407 29 q 411 30 429 31 q 470 32 478 38 q 487 43 493 59 q 499 75 514 160 l 546 340 l 409 340 l 258 340 q 215 95 215 61 q 215 46 225 39 q 235 33 256 32 l 307 29 l 310 25 l 307 1 l 303 -3 q 239 0 153 0 q 64 0 -11 -3 l -15 0 l -12 25 l -7 29 q -3 30 15 31 q 56 32 64 38 q 72 43 79 59 q 85 75 105 188 l 150 447 q 175 594 175 625 q 175 635 172 641 q 168 646 160 648 q 152 651 130 652 l 86 655 l 83 659 l 87 686 l 91 689 q 150 686 229 686 q 280 686 404 689 l 407 686 l 402 659 l 398 655 q 344 653 336 651 q 329 649 322 644 q 316 638 310 621 q 304 604 291 527 l 266 387 q 363 384 411 384 z"},"4":{"x_min":0,"x_max":500,"ha":500,"o":"m 102 -4 l 98 0 l 105 26 l 111 31 q 136 32 170 34 q 205 36 211 39 q 217 42 222 50 q 227 58 234 94 q 241 130 249 180 l 9 178 l 5 182 l 9 215 l 71 314 q 101 361 151 433 l 221 530 q 241 557 318 656 q 390 670 439 690 l 453 679 q 440 621 425 536 l 376 255 q 415 256 482 259 l 487 255 l 469 182 l 464 178 q 407 181 362 181 q 358 151 352 114 q 347 77 347 60 q 347 47 353 42 q 359 37 380 34 q 401 31 455 29 l 458 25 l 453 0 l 448 -4 q 446 -4 397 -2 q 327 0 284 0 q 243 0 102 -4 z m 264 255 l 300 463 l 311 521 l 324 598 q 280 544 200 431 q 120 317 86 255 q 118 254 149 254 q 196 254 264 255 z"},"~":{"x_min":0,"x_max":500,"ha":500,"o":"m 483 293 q 459 241 428 214 q 388 179 351 179 q 320 179 273 200 q 246 212 201 234 q 171 249 154 249 q 115 249 66 160 l 17 215 q 74 338 153 338 q 184 338 230 317 q 258 305 303 283 q 333 268 350 268 q 389 268 435 350 z"},"D":{"x_min":0,"x_max":778,"ha":778,"o":"m 92 686 l 96 689 q 167 686 256 686 l 441 689 q 566 689 631 656 q 695 623 725 562 q 754 501 754 427 q 754 331 713 234 q 671 136 576 66 q 480 -4 353 -4 q 328 -4 264 -2 q 202 0 170 0 q 85 0 23 -3 l 20 0 l 23 26 l 28 31 l 42 35 q 73 42 79 49 q 86 57 99 129 q 113 201 146 397 q 180 593 180 625 q 180 638 174 643 q 168 649 159 650 q 150 651 91 655 l 88 659 z m 212 59 l 280 50 q 327 43 360 43 q 415 43 451 58 q 487 73 515 104 q 542 135 563 180 q 585 224 601 295 q 617 365 617 437 q 617 483 606 519 q 596 555 578 579 q 561 603 536 618 q 510 633 481 638 q 452 644 410 644 q 352 644 312 638 q 310 614 294 536 l 252 298 q 220 115 212 59 z"},"^":{"x_min":0,"x_max":500,"ha":500,"o":"m 485 323 l 388 323 l 250 592 l 112 323 l 15 323 l 204 693 l 296 693 z"},"0":{"x_min":0,"x_max":500,"ha":500,"o":"m 43 222 q 43 406 116 547 q 188 689 311 689 q 346 689 374 677 q 402 666 422 648 q 441 631 455 604 q 468 577 478 534 q 487 492 487 439 q 487 370 472 292 q 456 215 428 155 q 401 94 367 53 q 333 13 296 -4 q 260 -21 216 -21 q 158 -21 120 10 q 81 41 62 92 q 43 143 43 222 z m 157 110 q 157 65 172 41 q 187 18 215 18 q 238 18 255 30 q 272 42 287 74 q 301 106 321 190 q 342 275 357 383 q 373 491 373 557 q 373 604 355 627 q 338 650 311 650 q 295 650 281 642 q 268 635 254 613 q 240 592 224 541 q 208 490 191 399 q 174 309 165 239 q 157 169 157 110 z"},"F":{"x_min":0,"x_max":556,"ha":556,"o":"m 94 685 l 98 689 q 165 686 250 686 l 423 688 q 488 688 587 689 l 591 684 q 587 656 578 604 q 568 552 567 530 l 562 526 l 537 526 l 533 530 q 534 564 534 598 q 534 612 531 617 q 529 623 518 627 q 507 632 472 637 q 437 641 398 641 q 355 641 319 636 q 310 608 298 530 q 294 510 266 346 l 296 345 q 442 345 499 353 l 503 346 l 491 300 l 486 296 q 412 298 308 298 q 276 298 256 296 q 221 89 221 61 q 221 45 232 39 q 242 33 261 32 l 313 29 l 316 25 l 313 1 l 309 -3 q 252 0 148 0 q 68 0 -5 -3 l -8 0 l -5 25 l -1 29 q 3 30 21 31 q 64 32 73 40 q 83 47 90 73 q 97 100 143 365 q 182 591 182 625 q 182 638 176 643 q 169 649 161 650 q 152 651 93 655 l 90 659 z"},"`":{"x_min":0,"x_max":333,"ha":333,"o":"m 333 546 l 305 533 q 282 556 245 590 q 208 625 173 656 l 98 720 l 103 731 l 108 733 l 217 720 l 223 715 q 253 667 331 553 z"},"k":{"x_min":0,"x_max":556,"ha":556,"o":"m 94 654 l 90 659 l 93 680 l 98 684 q 204 697 296 730 l 309 719 q 284 622 201 223 q 203 225 238 269 q 284 325 320 363 q 355 401 391 428 q 427 456 455 466 q 482 477 512 477 q 525 477 539 474 l 541 468 q 526 418 522 394 l 517 390 q 488 399 473 399 q 441 399 402 380 q 363 362 327 320 q 332 304 361 225 q 389 146 407 110 q 425 74 434 68 q 442 61 450 61 q 468 61 520 96 l 525 96 l 536 77 l 534 70 q 515 58 495 44 q 402 -21 370 -21 q 361 -21 354 -17 q 347 -13 336 2 q 326 17 314 47 q 302 78 278 143 q 253 208 246 232 q 218 204 207 188 q 196 171 191 158 q 187 145 178 104 q 170 62 167 43 q 164 24 164 4 q 115 1 53 -16 l 45 -3 q 86 140 129 373 q 173 606 173 629 q 173 641 166 646 q 160 652 146 653 q 132 654 94 654 z"},"u":{"x_min":0,"x_max":556,"ha":556,"o":"m 34 350 l 26 368 l 27 375 q 96 425 141 451 q 187 478 214 478 q 246 478 246 439 q 246 420 240 393 q 234 365 218 303 l 177 139 q 170 105 170 91 q 170 70 187 70 q 198 70 219 84 q 240 98 281 151 q 313 192 340 247 q 367 302 387 377 q 397 418 400 454 q 450 457 506 474 l 515 465 q 485 369 454 247 q 424 124 424 87 q 424 69 438 69 q 446 69 456 74 q 465 80 479 90 q 494 101 504 108 l 510 108 l 521 89 l 519 83 q 419 8 392 -6 q 365 -20 345 -20 q 330 -20 322 -9 q 313 2 313 21 q 313 51 338 146 l 357 221 q 311 129 230 53 q 150 -23 101 -23 q 80 -23 67 -8 q 54 6 54 35 q 54 54 58 76 q 62 97 80 163 q 122 320 122 363 q 122 384 107 384 q 102 384 94 380 q 85 377 41 349 z m 337 507 z m 210 -32 z"},"]":{"x_min":0,"x_max":333,"ha":333,"o":"m 128 182 l 181 543 q 194 638 192 659 q 192 678 171 683 q 150 689 80 689 l 77 694 l 81 719 l 87 724 q 114 721 222 721 q 282 721 310 723 l 316 718 q 304 670 260 364 q 217 58 196 -104 l 189 -111 q 128 -106 82 -106 q 37 -106 -31 -109 l -34 -104 l -30 -78 l -26 -75 q -17 -75 26 -73 q 69 -71 76 -67 q 83 -64 88 -48 q 93 -31 128 182 z"},"U":{"x_min":0,"x_max":778,"ha":778,"o":"m 644 62 q 644 45 652 39 q 661 33 682 32 l 735 29 l 738 25 l 735 1 l 731 -4 q 651 0 625 0 l 508 -2 l 503 4 q 521 83 527 127 q 443 38 388 9 q 333 -20 275 -20 q 180 -20 138 26 q 97 72 97 132 q 97 194 132 391 q 168 588 168 623 q 168 637 159 644 q 151 652 83 655 l 79 659 l 83 685 l 90 689 q 130 689 170 688 l 249 686 q 280 686 315 689 l 321 681 q 312 643 299 573 l 269 417 l 240 247 q 230 187 230 161 q 230 111 262 87 q 295 64 339 64 q 375 64 409 80 q 443 96 479 127 q 515 159 525 175 q 535 191 542 236 l 592 540 q 604 610 604 623 q 604 643 592 647 q 581 652 514 655 l 511 659 l 515 685 l 520 689 q 596 686 674 686 q 708 686 832 689 l 835 686 l 831 659 l 826 654 q 768 652 761 651 q 755 649 748 642 q 741 636 733 600 q 725 565 715 506 l 656 164 q 642 83 644 62 z m 452 729 z m 346 -32 z"},"o":{"x_min":0,"x_max":556,"ha":556,"o":"m 49 137 q 49 182 65 251 q 80 319 117 365 q 155 412 218 445 q 282 478 349 478 q 418 478 462 438 q 505 398 505 319 q 505 248 479 173 q 452 98 407 63 q 362 28 313 4 q 264 -21 202 -21 q 142 -21 109 2 q 76 25 62 61 q 49 97 49 137 z m 165 141 q 165 81 187 54 q 209 27 251 27 q 280 27 303 43 q 326 60 345 101 q 364 143 376 205 q 388 267 388 318 q 388 382 363 407 q 338 433 303 433 q 265 433 237 404 q 208 375 186 291 q 165 208 165 141 z m 337 507 z m 220 -32 z"},"N":{"x_min":0,"x_max":778,"ha":778,"o":"m 598 142 q 677 577 677 622 q 677 640 665 646 q 653 652 635 653 q 618 654 592 656 l 588 661 l 593 685 l 597 689 l 623 689 q 707 686 726 686 q 742 686 821 689 l 825 685 l 823 660 l 818 656 q 774 655 765 653 q 757 651 748 639 q 739 626 719 528 l 652 182 q 637 104 622 -8 l 536 -8 l 226 541 q 147 124 147 64 q 147 44 161 38 q 174 32 190 31 q 206 31 232 29 l 235 25 l 231 0 l 227 -3 l 201 -3 q 106 0 93 0 q 73 0 2 -4 l -1 0 l 1 25 l 5 29 q 53 31 60 34 q 67 37 74 44 q 81 51 87 81 l 107 175 q 121 241 131 295 l 187 599 q 161 638 149 644 q 136 650 69 656 l 66 660 l 69 685 l 75 689 q 117 687 146 687 l 284 689 l 373 531 z"},"+":{"x_min":0,"x_max":500,"ha":500,"o":"m 485 251 l 293 251 l 293 63 l 207 63 l 207 251 l 16 251 l 16 335 l 207 335 l 207 524 l 293 524 l 293 335 l 485 335 z"},"G":{"x_min":0,"x_max":778,"ha":778,"o":"m 651 45 l 648 42 q 624 37 569 19 q 494 -7 448 -14 q 403 -21 363 -21 q 228 -21 151 48 q 74 117 74 250 q 74 323 95 393 q 117 462 154 513 q 192 564 263 613 q 334 662 394 681 q 455 701 520 701 q 577 701 634 688 q 692 674 721 655 l 725 648 l 703 565 q 694 534 687 489 l 683 485 l 655 485 l 651 489 q 655 542 655 582 q 588 637 484 637 q 419 637 369 616 q 318 595 284 542 q 249 489 229 410 q 209 331 209 254 q 209 145 258 86 q 308 28 400 28 q 467 28 517 57 l 536 133 q 541 154 546 186 q 551 218 551 226 q 551 234 547 240 q 542 245 537 247 q 531 248 502 250 q 474 251 452 251 l 449 255 l 454 282 l 458 286 q 552 283 594 283 q 615 283 745 286 l 748 282 l 744 255 l 739 251 q 713 251 701 247 q 689 242 683 232 q 677 221 669 182 l 660 139 q 652 101 650 90 q 648 79 648 66 q 648 56 651 45 z"},"q":{"x_min":0,"x_max":537,"ha":537,"o":"m 228 -279 l 218 -260 q 234 -247 238 -243 q 241 -240 245 -228 q 250 -216 255 -190 q 258 -176 266 -142 l 299 4 l 325 121 l 342 195 q 273 93 201 38 q 128 -18 83 -18 q 58 -18 46 8 q 34 33 34 68 q 34 107 45 163 q 56 218 77 274 q 99 331 117 350 q 135 370 189 409 q 243 449 269 463 q 294 477 333 477 q 392 477 447 450 l 494 478 l 511 468 q 505 454 500 441 q 493 417 474 337 q 456 257 430 127 l 385 -84 q 363 -187 358 -220 q 357 -232 357 -243 q 357 -246 358 -258 q 323 -258 228 -279 z m 380 401 q 363 413 340 418 q 316 423 300 423 q 270 423 248 411 q 226 399 202 337 q 178 275 162 200 q 145 124 145 98 q 145 63 167 63 q 182 63 211 84 q 240 104 285 163 q 330 221 349 271 q 368 322 380 401 z"},"d":{"x_min":0,"x_max":556,"ha":556,"o":"m 339 654 l 335 659 l 338 680 l 343 684 q 448 697 542 730 l 554 719 l 519 567 q 504 501 463 295 q 433 145 428 107 q 425 88 425 79 q 425 62 436 62 q 448 62 504 104 l 510 104 l 521 84 l 519 78 q 428 9 400 -5 q 372 -20 353 -20 q 336 -20 326 -5 q 317 9 317 27 q 317 55 335 127 q 345 165 360 231 q 304 125 227 52 q 150 -21 102 -21 q 73 -21 56 5 q 40 32 40 77 q 40 138 55 204 q 71 270 92 313 q 113 356 129 371 q 144 385 196 418 q 247 452 273 462 q 299 471 328 471 q 355 471 395 461 l 411 564 q 417 609 417 628 q 417 641 411 647 q 404 653 389 653 q 374 654 339 654 z m 383 402 q 347 419 299 419 q 261 419 243 406 q 226 394 203 334 q 181 275 167 209 q 154 144 154 96 q 154 62 172 62 q 188 62 214 81 q 239 101 277 151 q 315 201 340 257 q 365 312 374 359 z"},"1":{"x_min":0,"x_max":500,"ha":500,"o":"m 42 -5 l 40 -1 l 46 26 l 52 31 q 130 33 151 39 q 157 41 163 48 q 169 54 173 69 q 182 101 207 244 l 246 470 q 264 571 265 587 q 257 582 199 556 l 84 504 l 75 511 l 92 578 q 218 611 293 642 q 368 673 388 688 l 406 674 q 399 649 360 425 l 311 146 q 301 91 301 68 q 301 50 311 42 q 321 35 364 32 q 406 30 431 30 l 434 26 l 428 0 l 423 -5 l 406 -4 q 400 -3 322 -2 q 245 0 234 0 q 143 0 42 -5 z"},"5":{"x_min":0,"x_max":500,"ha":500,"o":"m 9 33 q 28 113 35 175 l 39 179 l 61 176 l 64 171 q 62 160 62 146 q 62 90 93 56 q 123 22 176 22 q 243 22 282 88 q 321 155 321 239 q 321 299 293 332 q 266 365 212 365 q 178 365 153 351 q 128 336 106 305 l 76 318 q 128 583 139 673 l 144 677 q 205 670 308 670 q 413 670 468 674 l 474 665 l 429 574 q 350 567 306 567 q 197 567 168 571 l 126 372 q 182 422 266 422 q 318 422 361 402 q 403 382 427 339 q 450 296 450 251 q 450 193 421 132 q 393 71 329 27 q 266 -17 176 -17 q 83 -17 10 28 z"}}}
